<?xml version="1.0"?>
<svg xmlns="http://www.w3.org/2000/svg" width="290.790394283" height="343.890314006" viewBox="0 0 319.158 377.438" enable-background="new 0 0 319.158 377.438">
<rect y="0" fill="#C4262E" width="319.158" height="319.16"/>
<polygon fill="#D05158" points="319.158,17.534 166.635,124.337 314.81,0 313.699,0 166.19,123.774 289.967,0 288.953,0 
	165.659,123.294 269.117,0 268.176,0 165.106,122.838 251.117,0 250.241,0 164.533,122.41 235.204,0 234.375,0 163.931,122.016 
	220.825,0 220.038,0 163.233,121.818 207.571,0 206.812,0 162.615,121.417 195.153,0 194.406,0 161.883,121.394 183.286,0 182.56,0 
	161.188,121.212 171.792,0 171.071,0 160.481,121.048 160.481,0 159.766,0 159.766,121.217 149.157,0 148.441,0 159.039,121.135 
	137.679,0 136.947,0 158.333,121.263 125.843,0 125.1,0 157.648,121.488 113.431,0 112.67,0 156.999,121.788 100.208,0 99.42,0 
	156.339,122.071 85.859,0 85.034,0 155.719,122.429 69.998,0 69.123,0 155.101,122.793 52.067,0 51.13,0 154.569,123.278 31.294,0 
	30.281,0 154.057,123.774 6.547,0 5.435,0 153.632,124.353 0,16.777 0,17.652 153.223,124.944 0,36.476 0,37.304 152.779,125.514 
	0,54.271 0,55.059 152.568,126.205 0,70.677 0,71.438 152.292,126.87 0,86.061 0,86.802 152.042,127.54 0,100.73 0,101.458 
	152.031,128.266 0,114.966 0,115.685 151.869,128.972 0,128.972 0,129.688 151.965,129.688 0,142.981 0,143.7 151.965,130.404 
	0,157.202 0,157.927 152.159,131.099 0,171.869 0,172.611 152.231,131.821 0,187.227 0,187.99 152.568,132.46 0,203.606 0,204.396 
	152.799,133.143 0,221.362 0,222.192 153.238,133.716 0,241.016 0,241.89 153.612,134.329 0,263.222 0,264.155 154.088,134.864 
	0,288.953 0,289.961 154.558,135.409 0.367,319.16 1.304,319.16 155.111,135.866 26.765,319.16 27.638,319.16 155.709,136.26 
	50.107,319.16 50.932,319.16 156.349,136.573 71.216,319.16 72.004,319.16 156.947,136.992 90.641,319.16 91.403,319.16 
	157.678,137.081 108.891,319.16 109.633,319.16 158.324,137.437 126.282,319.16 127.009,319.16 159.039,137.501 143.146,319.16 
	143.868,319.16 159.766,137.456 159.766,319.16 160.481,319.16 160.481,137.627 176.365,319.16 177.086,319.16 161.183,137.421 
	193.229,319.16 193.961,319.16 161.888,137.304 210.616,319.16 211.356,319.16 162.589,137.15 228.836,319.16 229.599,319.16 
	163.285,136.961 248.237,319.16 249.03,319.16 163.919,136.628 269.301,319.16 270.13,319.16 164.542,136.281 292.597,319.16 
	293.469,319.16 165.101,135.825 318.934,319.16 319.158,319.16 319.158,318.313 165.668,135.388 319.158,288.88 319.158,287.867 
	166.16,134.864 319.158,263.247 319.158,262.313 166.656,134.348 319.158,241.135 319.158,240.26 167.076,133.764 319.158,221.575 
	319.158,220.75 167.341,133.094 319.158,203.888 319.158,203.097 167.74,132.488 319.158,187.6 319.158,186.838 167.96,131.805 
	319.158,172.319 319.158,171.578 168.065,131.094 319.158,157.739 319.158,157.01 168.304,130.409 319.158,143.606 319.158,142.885 
	168.278,129.688 319.158,129.688 319.158,128.972 168.375,128.972 319.158,115.78 319.158,115.063 168.237,128.266 319.158,101.651 
	319.158,100.929 168.185,127.547 319.158,87.094 319.158,86.353 167.894,126.88 319.158,71.831 319.158,71.069 167.74,126.176 
	319.158,55.565 319.158,54.777 167.362,125.565 319.158,37.918 319.158,37.094 167.085,124.895 319.158,18.409 "/>
	<polygon fill="#FFFFFF" points="34.065,284.729 34.065,247.941 26.546,247.941 26.546,292.125 55.57,292.125 55.57,284.729 "/>
	<path fill="#FFFFFF" d="M72.664,258.049c-4.479,0-8.092,0.945-11.368,2.975l-0.411,0.253L63.817,267l0.475-0.267
		c2.428-1.362,4.955-1.969,8.187-1.969c3.648,0,5.577,1.715,5.577,4.964v1.624c-1.793-0.652-4.038-0.982-6.685-0.982
		c-8.393,0-13.403,4.113-13.403,11c0,7.898,5.896,11.436,11.739,11.436c2.935,0,5.919-1.158,8.35-3.217v2.536h7.271v-22.709
		C85.327,262.19,80.711,258.049,72.664,258.049z M71.184,276.907c2.875,0,5.071,0.39,6.871,1.223v4.115
		c-1.446,1.902-4.226,3.777-7.302,3.777c-3.675,0-5.7-1.716-5.7-4.837C65.054,278.546,67.403,276.907,71.184,276.907z"/>
	<path fill="#FFFFFF" d="M110.522,269.204v7.27h7.021c-0.134,5.525-3.578,8.812-9.269,8.812c-7.068,0-11.122-5.559-11.122-15.251
		c0-9.693,4.054-15.25,11.122-15.25c4.044,0,6.283,1.273,8.554,4.869l0.277,0.438l6.537-4.053l-0.247-0.438
		c-3.168-5.608-8.115-8.338-15.122-8.338c-11.223,0-18.764,9.149-18.764,22.77c0,13.618,7.541,22.77,18.764,22.77
		c10.274,0,16.915-7.099,16.915-18.089v-5.512L110.522,269.204L110.522,269.204z"/>
	<path fill="#FFFFFF" d="M149.644,258.729v19.438c0,4.987-2.176,7.731-6.13,7.731c-2.854,0-6.131-0.948-6.131-8.347v-18.824h-7.395
		V277.8c0,9.815,4.166,15.006,12.046,15.006c2.959,0,5.79-1.09,7.609-2.859v2.18h7.397V258.73L149.644,258.729L149.644,258.729z"/>
	<path fill="#FFFFFF" d="M176.969,258.049c-4.479,0-8.091,0.945-11.368,2.975l-0.41,0.253l2.93,5.725l0.477-0.267
		c2.428-1.362,4.952-1.969,8.188-1.969c3.646,0,5.576,1.715,5.576,4.964v1.624c-1.793-0.652-4.035-0.982-6.686-0.982
		c-8.394,0-13.404,4.113-13.404,11c0,7.898,5.896,11.436,11.74,11.436c2.936,0,5.918-1.158,8.35-3.217v2.536h7.271v-22.709
		C189.632,262.19,185.017,258.049,176.969,258.049z M175.49,276.907c2.874,0,5.069,0.39,6.87,1.223v4.115
		c-1.447,1.902-4.229,3.777-7.303,3.777c-3.675,0-5.697-1.716-5.697-4.837C169.36,278.546,171.708,276.907,175.49,276.907z"/>
	<path fill="#FFFFFF" d="M216.199,259.493c-1.496-0.999-3.277-1.444-5.778-1.444c-2.613,0-5.125,1.059-6.865,2.827v-2.146h-7.396
		v33.396h7.396v-19.011c0-3.555,1.01-7.792,5.82-7.792c1.814,0,3.195,0.33,4.615,1.105l0.58,0.317l1.941-7.043L216.199,259.493z"/>
	<path fill="#FFFFFF" d="M238.606,249.632v11.401c-1.758-1.525-4.504-2.984-7.607-2.984c-6.125,0-13.277,4.413-13.277,16.855
		c0,11.377,4.729,17.9,12.971,17.9c2.801,0,5.338-0.999,7.916-3.131v2.45h7.336v-46.307L238.606,249.632z M231.862,285.899
		c-4.541,0-6.748-3.657-6.748-11.185c0-6.479,2.188-9.763,6.505-9.763c2.793,0,5.58,1.998,7.052,3.903v13.255
		C236.733,284.487,234.199,285.899,231.862,285.899z"/>
	<path fill="#FFFFFF" d="M256.751,255.583c2.489,0,4.592-2.103,4.592-4.592c0-2.564-2.06-4.651-4.592-4.651 c-2.564,0-4.654,2.087-4.654,4.651C252.097,253.523,254.187,255.583,256.751,255.583z"/>
	<rect x="253.022" y="258.729" fill="#FFFFFF" width="7.396" height="33.396"/>
	<path fill="#FFFFFF" d="M279.92,258.049c-4.479,0-8.094,0.945-11.37,2.975l-0.41,0.253l2.935,5.725l0.474-0.267
		c2.43-1.362,4.954-1.969,8.188-1.969c3.646,0,5.574,1.715,5.574,4.964v1.624c-1.789-0.652-4.033-0.982-6.683-0.982
		c-8.396,0-13.403,4.113-13.403,11c0,7.898,5.896,11.436,11.738,11.436c2.934,0,5.919-1.158,8.348-3.217v2.536h7.274v-22.709
		C292.583,262.19,287.966,258.049,279.92,258.049z M278.438,276.907c2.877,0,5.071,0.39,6.869,1.223v4.115
		c-1.443,1.902-4.222,3.777-7.301,3.777c-3.676,0-5.699-1.716-5.699-4.837C272.31,278.546,274.657,276.907,278.438,276.907z"/>
	<path fill="#C4262E" d="M18.37,363.383l-0.143,0.227c-1.36,2.153-2.982,3.071-5.429,3.071c-4.216,0-6.634-3.327-6.634-9.132
		c0-5.803,2.418-9.13,6.634-9.13c2.383,0,3.717,0.777,5.099,2.964l0.14,0.221l3.845-2.398l-0.124-0.217
		c-1.876-3.325-4.806-4.941-8.959-4.941c-6.651,0-11.121,5.428-11.121,13.503c0,8.077,4.47,13.506,11.121,13.506
		c3.957,0,7.178-1.791,9.068-5.049l0.124-0.211L18.37,363.383z"/>
	<path fill="#C4262E" d="M33.187,350.465c-5.292,0-8.846,4.145-8.846,10.313c0,6.051,3.593,10.276,8.736,10.276
		c5.357,0,8.956-4.173,8.956-10.385C42.033,354.662,38.395,350.465,33.187,350.465z M33.224,366.936
		c-2.845,0-4.543-2.344-4.543-6.267c0-3.697,1.71-6.088,4.359-6.088c2.87,0,4.653,2.374,4.653,6.195
		C37.693,364.345,35.813,366.936,33.224,366.936z"/>
	<path fill="#C4262E" d="M65.608,350.465c-2.937,0-4.511,1.041-5.872,2.633c-1.125-1.771-2.87-2.633-5.317-2.633
		c-1.742,0-3.278,0.633-4.324,1.756v-1.353h-4.303v19.781h4.303v-11.525c0-3.087,1.159-4.652,3.443-4.652
		c2.446,0,3.444,1.453,3.444,5.021v11.156h4.303v-11.525c0-3.087,1.158-4.652,3.442-4.652c2.447,0,3.444,1.453,3.444,5.021v11.156
		h4.301V359.35C72.473,353.455,70.163,350.465,65.608,350.465z"/>
	<path fill="#C4262E" d="M96.817,350.465c-2.938,0-4.512,1.041-5.872,2.633c-1.126-1.771-2.87-2.633-5.317-2.633
		c-1.742,0-3.278,0.633-4.324,1.756v-1.353h-4.303v19.781h4.303v-11.525c0-3.087,1.159-4.652,3.444-4.652
		c2.446,0,3.442,1.453,3.442,5.021v11.156h4.304v-11.525c0-3.087,1.158-4.652,3.441-4.652c2.446,0,3.444,1.453,3.444,5.021v11.156
		h4.302V359.35C103.682,353.455,101.372,350.465,96.817,350.465z"/>
	<path fill="#C4262E" d="M119.765,350.868v11.524c0,3.001-1.313,4.654-3.699,4.654c-2.56,0-3.702-1.55-3.702-5.022v-11.156h-4.303
		v11.306c0,5.811,2.463,8.881,7.123,8.881c1.794,0,3.511-0.68,4.581-1.771v1.366h4.303v-19.781H119.765L119.765,350.868z"/>
	<path fill="#C4262E" d="M137.627,350.465c-1.797,0-3.511,0.679-4.581,1.771v-1.368h-4.303v19.781h4.303v-11.525
		c0-2.999,1.313-4.652,3.699-4.652c2.561,0,3.701,1.549,3.701,5.021v11.156h4.302V359.35
		C144.749,353.536,142.286,350.465,137.627,350.465z"/>
	<rect x="149.465" y="350.868" fill="#C4262E" width="4.301" height="19.781"/>
	<path fill="#C4262E" d="M151.634,348.895c1.455,0,2.684-1.229,2.684-2.681c0-1.501-1.205-2.722-2.684-2.722
		c-1.5,0-2.72,1.221-2.72,2.722C148.915,347.692,150.134,348.895,151.634,348.895z"/>
	<path fill="#C4262E" d="M168.412,366.344c-0.634,0.369-1.702,0.74-2.657,0.74c-1.165,0-1.718-0.308-1.718-2.052v-10.194h4.767
		v-3.97h-4.767v-7.659l-4.23,2.263v5.396h-2.751v3.97h2.751v10.854c0,3.457,1.629,5.36,4.59,5.36c1.416,0,2.778-0.322,3.967-1.106
		l0.509-3.867L168.412,366.344z"/>
	<path fill="#C4262E" d="M184.787,350.868l-3.327,9.679c-0.463,1.297-1.062,3.278-1.457,4.621c-0.367-1.343-1.004-3.384-1.462-4.691
		l-3.212-9.607h-4.713l7.214,19.063l-2.929,7.506h4.565l9.88-26.568h-4.56V350.868z"/>
	<path fill="#C4262E" d="M215.698,363.383l-0.145,0.227c-1.354,2.153-2.979,3.071-5.428,3.071c-4.217,0-6.636-3.327-6.636-9.132
		c0-5.803,2.419-9.13,6.636-9.13c2.382,0,3.716,0.777,5.098,2.964l0.141,0.221l3.845-2.398l-0.123-0.217
		c-1.877-3.325-4.808-4.941-8.959-4.941c-6.647,0-11.117,5.428-11.117,13.503c0,8.077,4.47,13.506,11.117,13.506
		c3.957,0,7.177-1.791,9.069-5.049l0.123-0.211L215.698,363.383z"/>
	<path fill="#C4262E" d="M229.782,350.465c-5.291,0-8.846,4.145-8.846,10.313c0,6.051,3.592,10.276,8.737,10.276
		c5.354,0,8.954-4.173,8.954-10.385C238.629,354.662,234.992,350.465,229.782,350.465z M229.819,366.936
		c-2.844,0-4.545-2.344-4.545-6.267c0-3.697,1.711-6.088,4.361-6.088c2.869,0,4.654,2.374,4.654,6.195
		C234.291,364.345,232.411,366.936,229.819,366.936z"/>
	<polygon fill="#C4262E" points="241.843,345.467 241.843,370.649 246.142,370.649 246.142,343.214	"/>
	<polygon fill="#C4262E" points="251.192,345.467 251.192,370.649 255.49,370.649 255.49,343.214 "/>
	<path fill="#C4262E" d="M268.14,350.465c-5.363,0-8.695,3.951-8.695,10.313c0,6.051,3.531,10.276,8.589,10.276
		c2.799,0,4.965-0.827,6.821-2.604l0.188-0.179l-2.572-2.78l-0.189,0.141c-1.389,1.028-2.629,1.489-4.026,1.489
		c-2.446,0-4.132-1.774-4.547-4.763h12.435l0.256-0.2l0.023-0.235c0.038-0.399,0.09-0.945,0.09-1.549
		C276.509,354.353,273.226,350.465,268.14,350.465z M267.884,354.397c3.137,0,4.062,2.287,4.268,4.323h-8.37
		C264.158,355.93,265.61,354.397,267.884,354.397z"/>
	<path fill="#C4262E" d="M291.864,350.868v1.421c-1.014-0.925-2.653-1.824-4.543-1.824c-3.91,0-7.856,3.087-7.856,9.984
		c0,6.739,2.796,10.604,7.673,10.604c1.662,0,3.176-0.611,4.725-1.916c-0.043,3.617-1.08,4.962-6.354,5.21l-0.385,0.018l1.516,3.37
		l0.174-0.007c6.73-0.212,9.353-2.782,9.353-9.172v-17.688H291.864L291.864,350.868z M287.833,367.048
		c-2.736,0-4.066-2.196-4.066-6.711c0-3.893,1.319-5.865,3.922-5.865c1.715,0,3.433,1.257,4.25,2.27l0.057,7.944
		C290.819,366.163,289.265,367.048,287.833,367.048z"/>
	<path fill="#C4262E" d="M308.626,350.465c-5.363,0-8.695,3.951-8.695,10.313c0,6.051,3.531,10.276,8.588,10.276
		c2.799,0,4.966-0.827,6.821-2.604l0.188-0.179l-2.573-2.78l-0.188,0.141c-1.389,1.028-2.629,1.489-4.025,1.489
		c-2.448,0-4.134-1.774-4.548-4.763h12.436l0.255-0.2l0.024-0.235c0.038-0.399,0.089-0.945,0.089-1.549
		C316.994,354.353,313.709,350.465,308.626,350.465z M308.37,354.397c3.136,0,4.062,2.287,4.267,4.323h-8.37
		C304.644,355.93,306.097,354.397,308.37,354.397z"/>
	<polygon fill="#FFFFFF" points="208.604,186.772 229.01,188.469 210.299,166.363 189.89,164.659 188.188,185.069 206.907,207.186 "/>
	<polygon fill="#FFFFFF" points="86.576,142.742 74.9,159.575 103.406,154.419 115.082,137.585 98.25,125.913 69.744,131.069 "/>
	<polygon fill="#FFFFFF" points="112.345,186.931 114.217,207.327 132.743,185.056 130.87,164.662 110.468,166.532 91.946,188.806  "/>
	<polygon fill="#FFFFFF" points="234.211,142.422 250.929,130.601 222.386,125.695 205.655,137.516 217.476,154.243 246.026,159.147 "/>
	<polygon fill="#FFFFFF" points="185.783,59.059 177.045,40.537 167.255,67.806 175.997,86.335 194.528,77.596 204.31,50.324 "/>
	<polygon fill="#FFFFFF" points="134.406,59.025 115.8,50.447 125.833,77.629 144.436,86.202 153.009,67.598 142.983,40.427 "/>
	<polygon fill="#FFFFFF" points="160.215,204.81 174.771,219.229 174.638,190.255 160.093,175.841 145.668,190.391 145.796,219.36  "/>
	<polygon fill="#FFFFFF" points="225.26,92.155 230.468,72.35 205.449,86.938 200.237,106.752 220.043,111.967 245.071,97.377 "/>
	<polygon fill="#FFFFFF" points="95.232,92.445 75.47,97.826 100.624,112.204 120.383,106.818 114.997,87.054 89.839,72.68 "/>
</svg>